<?xml version="1.0" encoding="utf-8"?>
<!-- Generator: Adobe Illustrator 19.2.0, SVG Export Plug-In . SVG Version: 6.00 Build 0)  -->
<svg version="1.1" id="Layer_1" xmlns="http://www.w3.org/2000/svg" xmlns:xlink="http://www.w3.org/1999/xlink" x="0px" y="0px"
	 width="204px" height="42px" viewBox="0 0 204 42" style="enable-background:new 0 0 204 42;" xml:space="preserve">
<style type="text/css">
	.st0{fill-rule:evenodd;clip-rule:evenodd;fill:#F6CDC2;}
</style>
<path class="st0" d="M190,33c-2.3,6.5-7.1,8.3-12,8.8V42h-3.5c-1.2,0-2.4,0-3.5,0H33c-6.7,0-15.6,0.6-19-9C10.6,23.4,0,21,0,21
	s10.6-2.4,14-12c3.4-9.6,12.3-9,19-9h138c1.1,0,2.3,0,3.5,0h3.5v0.2c4.9,0.5,9.7,2.3,12,8.8c3.4,9.6,14,12,14,12S193.4,23.4,190,33z
	"/>
</svg>
