<?xml version="1.0" encoding="utf-8"?>
<!-- Generator: Adobe Illustrator 19.2.0, SVG Export Plug-In . SVG Version: 6.00 Build 0)  -->
<svg version="1.1" id="Layer_1" xmlns="http://www.w3.org/2000/svg" xmlns:xlink="http://www.w3.org/1999/xlink" x="0px" y="0px"
	 width="213px" height="46px" viewBox="0 0 213 46" style="enable-background:new 0 0 213 46;" xml:space="preserve">
<style type="text/css">
	.st0{fill:#C1B9B0;}
</style>
<g>
	<path class="st0" d="M107.4,22c0.2,0,0.4,0,0.6,0c3.2,0,6.4,0,9.6,0c0.5,0,0.6-0.2,0.6-0.6c0-2.9,0-5.8,0-8.7
		c0-0.5,0.1-0.6,0.6-0.6c4.6,0,9.3,0,13.9,0c0.4,0,0.5,0.1,0.5,0.5c0,9.3,0,18.6,0,27.9c0,0.4-0.1,0.5-0.5,0.5c-4.6,0-9.3,0-13.9,0
		c-0.5,0-0.6-0.1-0.6-0.6c0-3.3,0-6.6,0-9.9c0-0.2,0-0.3,0-0.5c-3.6,0-7.2,0-10.8,0c0,3.7,0,7.3,0,11c-0.3,0-0.5,0-0.7,0
		c-4.6,0-9.2,0-13.8,0c-0.5,0-0.5-0.2-0.5-0.6c0-9.2,0-18.5,0-27.7c0-0.6,0.1-0.7,0.6-0.7c4.6,0,9.2,0,13.8,0c0.4,0,0.6,0.1,0.6,0.6
		c0,2.9,0,5.8,0,8.7C107.4,21.5,107.4,21.7,107.4,22z"/>
	<path class="st0" d="M66.1,41.7c-3.3,0-6.5-0.1-9.8-0.6c-2.1-0.3-4.2-0.8-6.2-1.8c-2.6-1.4-4.2-3.5-5-6.3c-0.8-3-0.9-6-0.6-9.1
		c0.1-1.6,0.4-3.2,0.8-4.7c0.9-3.1,3-5.2,6-6.4c2.1-0.8,4.3-1.2,6.6-1.5c3.9-0.4,7.9-0.4,11.8-0.3c2.8,0.1,5.6,0.4,8.4,1.1
		c4.6,1.3,7.5,4.1,8.2,8.9c0.6,3.7,0.6,7.3-0.1,10.9c-0.8,4.2-3.4,6.8-7.4,8.1c-2.6,0.8-5.2,1.1-7.9,1.3
		C69.2,41.6,67.7,41.6,66.1,41.7z M71.6,26.4c0-1.8-0.1-3.6-0.6-5.3c-1.1-3.6-5-5.2-8.3-3.5c-1.5,0.8-2.4,2.1-2.8,3.7
		c-0.8,3.1-0.7,6.3-0.2,9.4c0.2,1.3,0.8,2.5,1.7,3.5c1.2,1.2,2.7,1.5,4.3,1.5c2.6-0.1,4.4-1.4,5.2-3.8
		C71.6,30.1,71.6,28.2,71.6,26.4z"/>
	<path class="st0" d="M42.1,11.8c-4.5,4.1-8.9,8.1-13.3,12.2c5.2,5.6,10.3,11.1,15.5,16.7c-0.3,0-0.4,0-0.6,0c-5.8,0-11.5,0-17.3,0
		c-0.4,0-0.6-0.1-0.9-0.4c-3.5-3.7-6.9-7.4-10.4-11.1c-0.1-0.1-0.2-0.3-0.5-0.4c0,0.2,0,0.4,0,0.6c0,3.5,0,7.1,0,10.6
		c0,0.4-0.1,0.5-0.5,0.5c-4.6,0-9.2,0-13.7,0c-0.1,0-0.2,0-0.3,0c0-9.6,0-19.2,0-28.8c0.2,0,0.3,0,0.5,0c4.5,0,9,0,13.4,0
		c0.5,0,0.6,0.1,0.6,0.6c0,2.9,0,5.8,0,8.7c0,0.2,0,0.3,0,0.6c0.2-0.2,0.3-0.3,0.4-0.4c3.5-3.1,7-6.2,10.5-9.3
		c0.2-0.2,0.5-0.3,0.8-0.3c5.1,0,10.2,0,15.2,0C41.7,11.8,41.9,11.8,42.1,11.8z"/>
	<path class="st0" d="M177.4,32c2.3,2,5,2.9,7.8,3.6c2.2,0.5,4.4,0.7,6.6,0.6c0.3,0,0.6-0.1,0.8-0.1c1-0.2,1.6-0.7,1.7-1.6
		c0.2-1.1-0.1-1.7-1.1-2.3c-1.2-0.7-2.6-1.1-3.9-1.4c-2.3-0.6-4.7-1.1-7-1.7c-1.6-0.5-3.2-1.2-4.5-2.4c-1.5-1.4-2.1-3.1-2.1-5.2
		c0.1-2.7,1.5-4.7,3.6-6.2c2.6-1.9,5.5-2.8,8.6-3.2c4.6-0.7,9.3-0.6,13.9,0c1.9,0.2,3.8,0.7,5.6,1.5c0.2,0.1,0.4,0.3,0.4,0.4
		c0,2.5,0,5,0,7.5c-0.4-0.2-0.6-0.4-0.9-0.6c-1.8-1.3-3.8-2.3-6-2.6c-2-0.3-4-0.3-5.8,0.6c-0.4,0.2-0.8,0.5-1.1,0.9
		c-0.7,0.8-0.5,1.8,0.4,2.2c1,0.5,2,0.8,3.1,1.1c2,0.5,4.1,0.9,6.1,1.4c2.2,0.5,4.2,1.4,5.8,3c2,2,2.7,4.4,2.3,7.1
		c-0.3,1.9-1.6,3.2-3.2,4.3c-2.6,1.8-5.6,2.8-8.7,3.4c-4.1,0.8-8.2,0.9-12.3,0.4c-3.3-0.4-6.6-1.2-9.7-2.6c-0.2-0.1-0.4-0.2-0.4-0.5
		c0-2.5,0-5,0-7.4C177.4,32.1,177.4,32.1,177.4,32z"/>
	<path class="st0" d="M155.7,12c0,7.3,0,14.6,0,22c0.2,0,0.4,0,0.6,0c4.1,0,8.2,0,12.4,0c1.9,0,2.1-0.1,3.5-1.3c0,2.7,0,5.4,0,8.1
		c-0.2,0-0.4,0-0.6,0c-10.2,0-20.4,0-30.7,0c-0.4,0-0.6-0.1-0.6-0.6c0-9.3,0-18.5,0-27.8c0-0.4,0.1-0.5,0.5-0.5c4.8,0,9.6,0,14.4,0
		C155.3,12,155.5,12,155.7,12z"/>
	<path class="st0" d="M163.7,23.7c0.4-0.6,0.7-1.2,1-1.8c-0.2-0.2-0.5-0.3-0.7-0.4c-1.9-1.2-2.9-3.6-2.5-5.8
		c0.4-1.8,1.6-2.9,3.3-3.5c3.3-1.2,6.7,0.8,7.4,4.2c0.4,1.9-0.7,4.3-2.5,5.1c-1.7,0.7-3.5,1.3-5.3,2C164.2,23.6,164,23.6,163.7,23.7
		z"/>
</g>
</svg>
