<?xml version="1.0" encoding="utf-8"?>
<!-- Generator: Adobe Illustrator 19.2.0, SVG Export Plug-In . SVG Version: 6.00 Build 0)  -->
<svg version="1.1" id="Layer_1" xmlns="http://www.w3.org/2000/svg" xmlns:xlink="http://www.w3.org/1999/xlink" x="0px" y="0px"
	 width="205.5px" height="52px" viewBox="0 0 205.5 52" style="enable-background:new 0 0 205.5 52;" xml:space="preserve">
<style type="text/css">
	.st0{fill:#C1B9B0;}
</style>
<g>
	<g>
		<g>
			<path class="st0" d="M181.7,17.8c1.1,0,2.1-0.6,2.2-1.4l1.1-12.7c0-1.3-1.5-2.3-3.3-2.3c-1.8,0-3.3,1-3.3,2.3l1.1,12.7
				C179.7,17.3,180.6,17.8,181.7,17.8L181.7,17.8z"/>
			<path class="st0" d="M174.9,21.8c0.6-1,0.5-2.1-0.1-2.6l-10.5-7.3c-1.1-0.6-2.7,0.1-3.6,1.7c-0.9,1.6-0.8,3.4,0.3,4l11.6,5.4
				C173.3,23.3,174.3,22.8,174.9,21.8L174.9,21.8z"/>
			<path class="st0" d="M188.6,21.8c0.6,1,1.6,1.5,2.3,1.2l11.6-5.4c1.1-0.6,1.2-2.4,0.3-4c-0.9-1.6-2.6-2.4-3.6-1.7l-10.5,7.3
				C188.1,19.7,188,20.8,188.6,21.8L188.6,21.8z"/>
		</g>
		<g>
			<path class="st0" d="M181.7,33.7c1.1,0,2.1,0.6,2.2,1.4l1.1,12.7c0,1.3-1.5,2.3-3.3,2.3c-1.8,0-3.3-1-3.3-2.3l1.1-12.7
				C179.7,34.3,180.6,33.7,181.7,33.7L181.7,33.7z"/>
			<path class="st0" d="M188.6,29.8c0.6-1,1.6-1.5,2.3-1.2l11.6,5.4c1.1,0.6,1.2,2.4,0.3,4c-0.9,1.6-2.6,2.4-3.6,1.7l-10.5-7.3
				C188.1,31.9,188,30.7,188.6,29.8L188.6,29.8z"/>
			<path class="st0" d="M174.9,29.8c0.6,1,0.5,2.1-0.1,2.6l-10.5,7.3c-1.1,0.6-2.7-0.1-3.6-1.7c-0.9-1.6-0.8-3.4,0.3-4l11.6-5.4
				C173.3,28.3,174.3,28.8,174.9,29.8L174.9,29.8z"/>
		</g>
	</g>
</g>
<g>
	<path class="st0" d="M121.5,27.3c0-4.8-2.1-9-9-9c-3.6,0-6.4,1-7.9,1.9l1.1,3.9c1.4-0.9,3.7-1.6,5.8-1.6c3.5,0,4.1,2,4.1,3.3v0.3
		c-7.7,0-12.5,2.6-12.5,8.1c0,3.3,2.5,6.4,6.8,6.4c2.6,0,4.8-1.1,6.2-2.7h0.1c0,0,0.9,3.7,5.7,2.3c-0.3-1.5-0.3-3.1-0.3-5.1V27.3z
		 M115.8,32.3c0,0.4,0,0.8-0.1,1.1c-0.4,1.5-2,2.7-3.9,2.7c-1.6,0-2.8-0.9-2.8-2.8c0-2.9,3.2-3.7,6.9-3.7V32.3z"/>
	<path class="st0" d="M2.1,11.7c0,0,5,20.5,5.8,23.9c0.9,3.9,2.6,5.3,7.5,4.4l3.1-12.7c0.8-3.2,1.3-5.4,1.8-8.6h0.1
		c0.4,3.2,0.9,5.5,1.5,8.6c0,0,1.3,5.8,1.9,8.8c0.7,3,2.5,4.9,7.2,3.9l7.5-28.2h-6L30,23.9c-0.7,3.5-1.3,6.3-1.8,9.6h-0.1
		c-0.4-3.2-1-5.9-1.7-9.3l-2.6-12.4h-6.3l-2.8,12.1c-0.8,3.7-1.6,6.7-2,9.8h-0.1c-0.5-3-1.1-6.7-1.8-10.3c0,0-1.7-8.7-2.3-11.7H2.1z
		"/>
	<path class="st0" d="M55.6,27.3c0-4.8-2.1-9-9-9c-3.6,0-6.4,1-7.9,1.9l1.1,3.9c1.4-0.9,3.7-1.6,5.8-1.6c3.5,0,4.1,2,4.1,3.3v0.3
		c-7.7,0-12.5,2.6-12.5,8.1c0,3.3,2.5,6.4,6.8,6.4c2.6,0,4.8-1.1,6.2-2.7h0.1c0,0,0.9,3.7,5.7,2.3c-0.3-1.5-0.3-3.1-0.3-5.1V27.3z
		 M49.9,32.3c0,0.4,0,0.8-0.1,1.1c-0.4,1.5-2,2.7-3.9,2.7c-1.6,0-2.8-0.9-2.8-2.8c0-2.9,3.2-3.7,6.9-3.7V32.3z"/>
	<polygon class="st0" points="65.2,33.9 65.2,11.7 59.4,11.7 59.4,39.9 65.2,39.9 	"/>
	<path class="st0" d="M140.1,11.7c0,2.7,0,20.8,0,20.8c0,2.9,0.5,4.9,1.7,6.1c1,1.1,2.7,1.8,4.7,1.8c1.7,0,3.4-0.3,4.1-0.6l-0.1-4.5
		c-0.6,0.1-1.3,0.3-2.2,0.3c-2,0-2.6-1.2-2.6-3.8v-8h5v-5.4h-5v-6.7H140.1z"/>
	<path class="st0" d="M125.3,18.7v21.2h5.9V29c0-0.6,0-1.1,0.1-1.6c0.4-2.3,2.2-3.7,4.7-3.7c0.7,0,1.2,0.1,1.7,0.2v-5.5
		c-0.4-0.1-0.7-0.1-1.3-0.1c-2.2,0-4.7,1.4-5.8,4.5h-0.2v-4H125.3z"/>
	<path class="st0" d="M69.2,18.7v21.2h5.8V27.5c0-0.6,0.1-1.2,0.3-1.7c0.5-1.3,1.6-2.7,3.5-2.7c2.3,0,3.4,2,3.4,4.8v12.1h5.8V27.3
		c0-0.6,0.1-1.2,0.2-1.7c0.5-1.4,1.7-2.6,3.5-2.6c2.4,0,3.5,1.9,3.5,5.3c0,0,0,9,0,11.6h5.8V27.4c0-6.6-3.3-9.2-7.1-9.2
		c-1.7,0-3,0.4-4.2,1.2c-1,0.6-1.9,1.5-2.7,2.6h-0.1c-0.9-2.3-3.1-3.8-5.8-3.8c-3.6,0-5.2,1.8-6.2,3.4h-0.1v-2.9H69.2z"/>
</g>
</svg>
